nColumns=19
nRows=23
DataType=double
version=3
OpenSimVersion=4.4-2022-07-23-0e9fedc
endheader
time	ground_force_1_vx	ground_force_1_vy	ground_force_1_vz	ground_force_1_px	ground_force_1_py	ground_force_1_pz	ground_moment_1_mx	ground_moment_1_my	ground_moment_1_mz	ground_force_2_vx	ground_force_2_vy	ground_force_2_vz	ground_force_2_px	ground_force_2_py	ground_force_2_pz	ground_moment_2_mx	ground_moment_2_my	ground_moment_2_mz
30	-85.24234116	768.7166059	83.20732101	0.8125	0	0.2385	-66.01894888	-36.15962636	293.0874377	22.38107693	152.6207267	-19.46864121	0.8125	0	0.733	23.31144807	-0.888357213	6.002302949
30.01	-84.15241499	790.846347	86.48767866	0.8125	0	0.2385	-67.47583126	-36.63356887	296.3049306	14.82794335	107.0174437	-14.95493989	0.8125	0	0.733	16.05992667	-0.085270333	3.613787168
30.02	-80.61166196	805.5288268	88.56115544	0.8125	0	0.2385	-68.37283069	-36.42653688	296.1563814	8.316986288	69.82970262	-11.09981108	0.8125	0	0.733	10.14045267	0.617113622	1.70121917
30.03	-75.16805133	813.1323277	89.51513442	0.8125	0	0.2385	-68.75105999	-35.66028513	293.0023861	3.079707382	41.34082773	-7.948985716	0.8125	0	0.733	5.603933369	1.184446079	0.274626468
30.04	-68.38543293	814.1018229	89.59186156	0.8125	0	0.2385	-68.6558792	-34.48563503	287.2729653	-0.810088004	21.03195271	-5.529075208	0.8125	0	0.733	2.372949075	1.612761646	-0.724750831
30.05	-60.92327408	809.063348	88.98988218	0.8125	0	0.2385	-68.14941197	-33.04676866	279.3949103	5.03E-16	-2.73E-14	5.37E-15	0.8125	0	0.733	-1.16E-15	-3.50E-16	1.28E-14
30.06	-53.27180492	798.9465388	87.88423056	0.8125	0	0.2385	-67.31953265	-31.46107564	269.8834467	1.04E-19	-5.98E-18	1.18E-18	0.8125	0	0.733	-2.49E-19	-7.28E-20	2.80E-18
30.07	-45.80841957	785.0370362	86.40502374	0.8125	0	0.2385	-66.28516367	-29.8077969	259.2771551	2.32E-23	-1.31E-21	2.59E-22	0.8125	0	0.733	-5.43E-23	-1.60E-23	6.13E-22
30.08	-38.71498395	768.8836739	84.56575188	0.8125	0	0.2385	-65.18736253	-28.11964989	248.1651368	5.05E-27	-2.88E-25	5.65E-26	0.8125	0	0.733	-1.19E-26	-3.56E-27	1.34E-25
30.09	-32.09976985	752.0820141	82.38396112	0.8125	0	0.2385	-64.16494193	-26.4102604	237.0742848	1.19E-30	-6.33E-29	1.24E-29	0.8125	0	0.733	-2.64E-30	-8.07E-31	2.94E-29
30.1	-26.04646075	736.0261573	79.88670354	0.8125	0	0.2385	-63.32734576	-24.68617084	226.4537535	2.48E-34	-1.38E-32	2.73E-33	0.8125	0	0.733	-5.73E-34	-1.73E-34	6.45E-33
30.11	-20.64764815	721.7524786	77.15685486	0.8125	0	0.2385	-62.74212872	-22.96084169	216.616041	5.58E-38	-3.02E-36	5.94E-37	0.8125	0	0.733	-1.25E-37	-3.97E-38	1.41E-36
30.12	-15.9957055	709.9760344	74.36423792	0.8125	0	0.2385	-62.4333465	-21.27049639	207.7590302	1.34E-41	-6.63E-40	1.32E-40	0.8125	0	0.733	-2.79E-41	-8.25E-42	3.09E-40
30.13	-12.1063462	701.0978147	71.70425877	0.8125	0	0.2385	-62.39240287	-19.65773517	199.981847	2.65E-45	-1.45E-43	2.85E-44	0.8125	0	0.733	-6.02E-45	-1.75E-45	6.77E-44
30.14	-8.941613637	695.2692193	69.36227378	0.8125	0	0.2385	-62.592897	-18.16169013	193.2584391	5.61E-49	-3.18E-47	6.31E-48	0.8125	0	0.733	-1.32E-48	-3.85E-49	1.48E-47
30.15	-6.393230446	692.4620414	67.47679016	0.8125	0	0.2385	-62.99680168	-16.80786115	187.5404918	1.38E-52	-6.96E-51	1.36E-51	0.8125	0	0.733	-2.90E-52	-8.87E-53	3.24E-51
30.16	-4.332464646	692.4799354	66.10248296	0.8125	0	0.2385	-63.56413357	-15.60209141	182.6953727	2.85E-56	-1.52E-54	3.00E-55	0.8125	0	0.733	-6.32E-56	-1.94E-56	7.10E-55
30.17	-2.593487684	695.0548296	65.23840447	0.8125	0	0.2385	-64.25451629	-14.54156723	178.6071446	6.03E-60	-3.34E-58	6.48E-59	0.8125	0	0.733	-1.39E-59	-4.20E-60	1.56E-58
30.18	-1.023219673	699.8038273	64.85051486	0.8125	0	0.2385	-65.03007031	-13.60995896	175.1192094	1.34E-63	-7.31E-62	1.44E-62	0.8125	0	0.733	-3.02E-63	-9.12E-64	3.41E-62
30.19	0.524878213	706.2613767	64.85229365	0.8125	0	0.2385	-65.85027356	-12.78963889	172.0709343	3.01E-67	-1.60E-65	3.15E-66	0.8125	0	0.733	-6.64E-67	-2.07E-67	7.48E-66
30.2	2.161400781	713.8475912	65.17971251	0.8125	0	0.2385	-66.66971898	-12.05861187	169.2826221	6.28E-71	-3.48E-69	6.87E-70	0.8125	0	0.733	-1.47E-70	-4.36E-71	1.64E-69
30.21	3.96380795	721.9161433	65.73797688	0.8125	0	0.2385	-67.44334988	-11.38928172	166.5704306	1.46E-74	-7.75E-73	1.51E-73	0.8125	0	0.733	-3.21E-74	-1.00E-74	3.59E-73
30.22	5.982182078	729.8214	66.42694757	0.8125	0	0.2385	-68.12553778	-10.75860357	163.789739	3.10E-78	-1.67E-76	3.32E-77	0.8125	0	0.733	-7.00E-78	-2.06E-78	7.85E-77
